<?xml version="1.0"?>
<svg xmlns="http://www.w3.org/2000/svg" height="512px" viewBox="0 0 512 512" width="512px" class=""><g><g fill="#00479b"><path d="m256 512c-68.378906 0-132.667969-26.628906-181.019531-74.980469-48.351563-48.351562-74.980469-112.640625-74.980469-181.019531s26.628906-132.667969 74.980469-181.019531c48.351562-48.351563 112.640625-74.980469 181.019531-74.980469s132.667969 26.628906 181.019531 74.980469c48.351563 48.351562 74.980469 112.640625 74.980469 181.019531s-26.628906 132.667969-74.980469 181.019531c-48.351562 48.351563-112.640625 74.980469-181.019531 74.980469zm0-482c-124.617188 0-226 101.382812-226 226s101.382812 226 226 226 226-101.382812 226-226-101.382812-226-226-226zm0 0" data-original="#000000" class="active-path" data-old_color="#512da8" fill="#512da8"/><path d="m255.316406 391.5c-74.714844 0-135.5-60.785156-135.5-135.5s60.785156-135.5 135.5-135.5c53.570313 0 102.214844 31.652344 123.925782 80.640625 3.359374 7.574219-.0625 16.433594-7.636719 19.792969-7.574219 3.355468-16.433594-.0625-19.789063-7.636719-16.90625-38.148437-54.785156-62.796875-96.5-62.796875-58.175781 0-105.5 47.328125-105.5 105.5s47.324219 105.5 105.5 105.5c41.957032 0 79.921875-24.847656 96.726563-63.304688 3.316406-7.589843 12.160156-11.058593 19.75-7.738281 7.59375 3.316407 11.058593 12.160157 7.738281 19.75-21.578125 49.386719-70.335938 81.292969-124.214844 81.292969zm0 0" data-original="#000000" class="active-path" data-old_color="#512da8" fill="#512da8"/></g></g> </svg>
