<?xml version="1.0"?>
<svg xmlns="http://www.w3.org/2000/svg" xmlns:xlink="http://www.w3.org/1999/xlink" version="1.1" id="Capa_1" x="0px" y="0px" viewBox="0 0 469.333 469.333" style="enable-background:new 0 0 469.333 469.333;" xml:space="preserve" width="512px" height="512px" class=""><g><g>
	<g>
		<g>
			<path d="M180.833,149.333h21.333c5.896,0,10.667-4.771,10.667-10.667S208.062,128,202.167,128H191.5     c0-5.896-4.771-10.667-10.667-10.667c-5.896,0-10.667,4.771-10.667,10.667v1.965c-12.389,4.418-21.333,16.147-21.333,30.035     c0,17.646,14.354,32,32,32c5.875,0,10.667,4.781,10.667,10.667s-4.792,10.667-10.667,10.667H159.5     c-5.896,0-10.667,4.771-10.667,10.667c0,5.896,4.771,10.667,10.667,10.667h10.667c0,5.896,4.771,10.667,10.667,10.667     c5.896,0,10.667-4.771,10.667-10.667v-1.965c12.389-4.418,21.333-16.147,21.333-30.035c0-17.646-14.354-32-32-32     c-5.875,0-10.667-4.781-10.667-10.667C170.167,154.115,174.958,149.333,180.833,149.333z" data-original="#000000" class="active-path" data-old_color="##5CC8F" fill="#5CC8F2"/>
			<path d="M463.083,432.917L323.59,293.423c24.389-30.885,39.077-69.771,39.077-112.09C362.667,81.344,281.312,0,181.333,0     S0,81.344,0,181.333s81.354,181.333,181.333,181.333c42.316,0,81.204-14.686,112.091-39.076l139.492,139.492     c4.167,4.167,9.625,6.25,15.083,6.25c5.458,0,10.917-2.083,15.083-6.25C471.417,454.75,471.417,441.25,463.083,432.917z      M181.333,320c-76.458,0-138.667-62.208-138.667-138.667c0-76.458,62.208-138.667,138.667-138.667     C257.792,42.667,320,104.875,320,181.333C320,257.792,257.792,320,181.333,320z" data-original="#000000" class="active-path" data-old_color="##5CC8F" fill="#5CC8F2"/>
		</g>
	</g>
</g></g> </svg>
