<?xml version="1.0" encoding="iso-8859-1"?>
<!-- Generator: Adobe Illustrator 21.0.0, SVG Export Plug-In . SVG Version: 6.00 Build 0)  -->
<svg version="1.1" id="Capa_1" xmlns="http://www.w3.org/2000/svg" xmlns:xlink="http://www.w3.org/1999/xlink" x="0px" y="0px"
	 viewBox="0 0 512.001 512.001" style="enable-background:new 0 0 512.001 512.001;" xml:space="preserve">
<linearGradient id="SVGID_1_" gradientUnits="userSpaceOnUse" x1="279.1998" y1="299.7925" x2="279.1998" y2="-16.0074" gradientTransform="matrix(1.0039 0 0 -1.0039 0.1922 516.5599)">
	<stop  offset="0" style="stop-color:#FFB92D"/>
	<stop  offset="1" style="stop-color:#F59500"/>
</linearGradient>
<path style="fill:url(#SVGID_1_);" d="M77.092,265.454l233.383,233.383c17.553,17.553,46.013,17.553,63.565,0l108.135-108.135
	c17.562-17.562,17.562-46.022,0.009-63.574L248.865,93.807c-9.729-9.729-23.85-13.631-37.191-10.291l-93.478,23.378
	c-14.067,3.522-25.04,14.53-28.515,28.606l-18.097,73.349l-4.819,19.539C63.488,241.703,67.39,255.752,77.092,265.454z
	 M169.672,203.331c-0.299,0.099-0.617,0.2-0.944,0.272c-0.308,0.09-0.626,0.173-0.953,0.245c-0.953,0.227-1.943,0.4-2.931,0.517
	c-0.299,0.045-0.617,0.072-0.926,0.09c-0.699,0.063-1.406,0.081-2.123,0.09c-14.421-0.009-26.092-11.681-26.092-26.092
	c0-0.382,0.018-0.744,0.027-1.116c0.036-0.889,0.118-1.77,0.245-2.623c1.815-12.651,12.679-22.353,25.82-22.353
	c14.412,0,26.083,11.672,26.092,26.092C187.886,190.126,180.236,199.991,169.672,203.331z"/>
<linearGradient id="SVGID_2_" gradientUnits="userSpaceOnUse" x1="258.6578" y1="183.8367" x2="47.5279" y2="436.3167" gradientTransform="matrix(1.0039 0 0 -1.0039 0.1922 516.5599)">
	<stop  offset="0" style="stop-color:#BE3F45;stop-opacity:0"/>
	<stop  offset="1" style="stop-color:#BE3F45"/>
</linearGradient>
<path style="fill:url(#SVGID_2_);" d="M269.165,457.528l-111.96-111.959V242.606c-0.55-4.88,0.315-8.459,2.588-10.733
	c1.386-1.386,3.282-2.262,5.693-2.623c2.405-0.366,4.278,0.108,5.59,1.421c0.802,0.802,1.3,2.24,1.495,4.313
	c0.195,2.062,0.303,4.186,0.309,6.369c0.017,2.182,0.665,4.857,1.959,8.018c1.289,3.167,3.316,6.134,6.094,8.912
	c4.163,4.163,8.499,6.506,13.001,7.044c2.24,0.269,4.404-0.006,6.477-0.819l0.04-54.894c-0.172-2.394-0.103-4.845,0.241-7.354
	c0.785-5.676,3.597-10.939,8.448-15.79c3.86-3.86,7.961-6.46,12.302-7.8c4.336-1.346,8.55-1.506,12.634-0.481
	c4.083,1.025,7.881,2.6,11.385,4.719c3.505,2.119,6.833,4.748,9.971,7.886c1.97,1.97,3.906,4.169,5.808,6.575
	c1.901,2.405,3.625,4.954,5.166,7.652c1.541,2.698,2.463,5.281,2.766,7.748c0.161,1.351,0.068,2.532-0.269,3.557
	c0.023,0.103,0.046,10.057,0.074,25.938C269.062,297.707,269.142,425.33,269.165,457.528z"/>
<linearGradient id="SVGID_3_" gradientUnits="userSpaceOnUse" x1="276.8847" y1="173.8877" x2="65.7547" y2="413.4677" gradientTransform="matrix(1.0039 0 0 -1.0039 0.1922 516.5599)">
	<stop  offset="0" style="stop-color:#BE3F45;stop-opacity:0"/>
	<stop  offset="1" style="stop-color:#BE3F45"/>
</linearGradient>
<path style="fill:url(#SVGID_3_);" d="M323.647,507.979c-4.777-2.164-9.249-5.217-13.172-9.141l-91.394-91.394l0.074-101.594
	c-0.04-0.372-0.074-0.75-0.097-1.128c-0.516-8.396,3.436-16.792,11.832-25.188l31.883-31.883c2.067-2.067,4.135-3.86,6.202-5.389
	c6.329-4.679,12.651-6.833,18.985-6.443c8.402,0.51,16.328,4.496,23.774,11.941c7.451,7.451,11.449,15.389,11.998,23.831
	l-0.017,40.657L323.647,507.979z"/>
<linearGradient id="SVGID_4_" gradientUnits="userSpaceOnUse" x1="280.7111" y1="167.6419" x2="69.5811" y2="362.0619" gradientTransform="matrix(1.0039 0 0 -1.0039 0.1922 516.5599)">
	<stop  offset="0" style="stop-color:#BE3F45;stop-opacity:0"/>
	<stop  offset="1" style="stop-color:#BE3F45"/>
</linearGradient>
<path style="fill:url(#SVGID_4_);" d="M358.955,508.786c-10.864,4.347-23.08,4.284-33.899-0.201
	c-0.475-0.189-0.945-0.396-1.409-0.607c-4.777-2.164-9.249-5.217-13.172-9.141l-37.684-37.684l-0.326-94.583
	c-0.332-1.719,0.091-3.161,1.26-4.33l72.523-72.523c1.237-1.237,2.732-1.609,4.491-1.099c1.753,0.515,3.43,1.575,5.04,3.184
	c1.603,1.603,2.663,3.282,3.178,5.035L358.955,508.786L358.955,508.786z"/>
<linearGradient id="SVGID_5_" gradientUnits="userSpaceOnUse" x1="314.018" y1="135.003" x2="102.888" y2="321.923" gradientTransform="matrix(1.0039 0 0 -1.0039 0.1922 516.5599)">
	<stop  offset="0" style="stop-color:#BE3F45;stop-opacity:0"/>
	<stop  offset="1" style="stop-color:#BE3F45"/>
</linearGradient>
<path style="fill:url(#SVGID_5_);" d="M438.665,434.208l-64.625,64.625c-4.45,4.45-9.593,7.771-15.085,9.954
	c-10.864,4.347-23.08,4.284-33.899-0.201l-0.338-89.876c-0.258-1.713,0.126-3.081,1.151-4.106l72.632-72.632
	c1.019-1.019,2.388-1.403,4.106-1.151c1.713,0.258,3.305,1.116,4.765,2.577l19.392,19.392c7.445,7.445,11.449,15.389,11.993,23.825
	c0.091,1.34,0.051,2.686-0.091,4.032v43.561H438.665z"/>
<g>
	<path style="fill:#FFFFFF;" d="M159.792,231.876c1.386-1.386,3.285-2.265,5.696-2.629c2.408-0.364,4.273,0.109,5.587,1.425
		c0.803,0.803,1.301,2.239,1.498,4.309c0.196,2.068,0.3,4.192,0.31,6.373s0.66,4.852,1.952,8.017
		c1.29,3.163,3.324,6.131,6.101,8.908c4.163,4.163,8.495,6.512,12.997,7.051c4.502,0.538,8.663-1.104,12.482-4.923
		c3.523-3.523,5.236-7.684,5.141-12.48c-0.099-4.797-1.185-9.627-3.256-14.492c-2.075-4.864-4.057-9.856-5.946-14.978
		c-1.889-5.121-2.445-10.52-1.658-16.198c0.782-5.678,3.598-10.938,8.445-15.786c3.862-3.862,7.962-6.465,12.301-7.81
		c4.337-1.345,8.55-1.505,12.637-0.478c4.086,1.025,7.881,2.598,11.384,4.719c3.503,2.119,6.827,4.749,9.967,7.889
		c1.972,1.972,3.908,4.161,5.81,6.57c1.9,2.406,3.622,4.956,5.163,7.654c1.539,2.696,2.462,5.28,2.767,7.75
		c0.302,2.471-0.23,4.393-1.602,5.766c-1.372,1.372-3.194,2.317-5.465,2.836c-2.271,0.519-4.137,0.046-5.598-1.415
		c-0.731-0.731-1.369-2.065-1.911-4.004c-0.545-1.941-1.508-4.298-2.891-7.078c-1.384-2.779-3.428-5.521-6.13-8.221
		c-4.162-4.162-8.313-6.66-12.448-7.49c-4.137-0.83-7.892,0.443-11.27,3.821c-2.203,2.203-3.437,4.752-3.701,7.645
		c-0.264,2.892,0.131,5.895,1.185,9.003c1.053,3.11,2.361,6.438,3.926,9.986c1.565,3.546,2.948,7.24,4.145,11.081
		c1.199,3.841,1.974,7.667,2.33,11.474c0.356,3.807-0.314,7.874-2.009,12.198c-1.697,4.325-4.528,8.471-8.491,12.436
		c-7.547,7.547-15.582,11.015-24.1,10.406c-8.519-0.611-16.54-4.678-24.061-12.2c-6.72-6.72-11.029-13.839-12.928-21.362
		C156.248,240.131,156.796,234.872,159.792,231.876z"/>
	<path style="fill:#FFFFFF;" d="M230.89,279.529l31.879-31.879c8.398-8.398,16.797-12.343,25.196-11.831
		c8.398,0.511,16.323,4.493,23.772,11.941c7.45,7.45,11.448,15.392,11.997,23.827c0.547,8.436-3.379,16.854-11.777,25.252
		l-31.879,31.879c-8.399,8.399-16.816,12.324-25.252,11.777c-8.435-0.548-16.378-4.547-23.827-11.997
		c-7.449-7.449-11.43-15.374-11.941-23.772C218.547,296.327,222.49,287.929,230.89,279.529z M242.501,291.142
		c-9.422,9.422-9.823,18.441-1.206,27.059c4.163,4.163,8.543,6.208,13.146,6.135c4.6-0.073,9.275-2.483,14.023-7.23l31.879-31.879
		c4.747-4.747,7.155-9.422,7.23-14.023c0.071-4.601-1.972-8.983-6.135-13.146c-8.618-8.618-17.638-8.216-27.059,1.206
		L242.501,291.142z"/>
	<path style="fill:#FFFFFF;" d="M273.723,362.24l72.522-72.522c1.241-1.241,2.737-1.607,4.492-1.095
		c1.751,0.512,3.432,1.57,5.039,3.176c1.605,1.605,2.663,3.287,3.177,5.04c0.51,1.753,0.146,3.251-1.095,4.492l-66.059,66.059
		l28.482,28.482c1.095,1.095,1.442,2.465,1.041,4.109c-0.404,1.642-1.298,3.159-2.683,4.546c-1.388,1.388-2.904,2.282-4.547,2.685
		c-1.645,0.402-3.013,0.054-4.108-1.041l-34.947-34.947c-1.388-1.388-2.247-2.938-2.574-4.655
		C272.133,364.85,272.554,363.408,273.723,362.24z"/>
	<path style="fill:#FFFFFF;" d="M325.868,414.604l72.633-72.633c1.022-1.022,2.39-1.404,4.108-1.15
		c1.715,0.257,3.303,1.112,4.766,2.574l19.391,19.391c7.449,7.449,11.448,15.392,11.996,23.827
		c0.547,8.436-3.379,16.854-11.777,25.252l-31.222,31.222c-8.399,8.399-16.816,12.324-25.252,11.777
		c-8.435-0.548-16.378-4.547-23.827-11.996l-19.391-19.391c-1.462-1.462-2.319-3.049-2.574-4.766
		C324.46,416.996,324.845,415.627,325.868,414.604z M344.053,419.643l12.926,12.927c8.69,8.69,17.747,8.326,27.169-1.095
		l31.222-31.222c9.422-9.422,9.786-18.478,1.095-27.169l-12.927-12.926L344.053,419.643z"/>
</g>
<linearGradient id="SVGID_6_" gradientUnits="userSpaceOnUse" x1="93.3576" y1="416.0763" x2="162.4976" y2="432.4563" gradientTransform="matrix(1.0039 0 0 -1.0039 0.1922 516.5599)">
	<stop  offset="0" style="stop-color:#A7F3CE"/>
	<stop  offset="1" style="stop-color:#61DB99"/>
</linearGradient>
<path style="fill:url(#SVGID_6_);" d="M171.501,154.239c-0.09,0.11-0.192,0.212-0.292,0.312c-4.676,4.686-13.928,5.816-25.368,3.266
	c-1.966-0.434-4.002-0.978-6.088-1.632c-15.239-4.788-32.06-14.998-47.228-28.492c-2.47-2.208-4.898-4.496-7.266-6.864
	c-16.892-16.902-29.782-36.768-35.356-54.496c-4.464-14.212-3.86-25.972,1.632-31.456c3.044-3.054,8.042-4.596,14.312-4.596
	c5.01,0,10.834,0.978,17.144,2.964c17.728,5.574,37.584,18.464,54.486,35.366c8.718,8.718,16.378,18.222,22.506,27.827l30.67-7.66
	c-1.652-2.984-3.436-5.956-5.332-8.91c-7.256-11.318-16.186-22.374-26.456-32.646C138.331,26.694,114.606,11.484,92.049,4.4
	c-25.912-8.144-47.894-4.908-61.904,9.092C16.137,27.5,12.911,49.482,21.055,75.394c7.086,22.556,22.294,46.281,42.824,66.812
	c6.36,6.36,13.012,12.195,19.845,17.446c15.26,11.722,31.396,20.49,46.966,25.378c2.156,0.676,4.284,1.28,6.38,1.794
	c7.014,1.744,13.707,2.61,19.976,2.61c11.994,0,22.456-3.154,30.79-9.384c0.03-0.524,0.05-1.058,0.05-1.592
	C187.879,167.473,181.105,158.08,171.501,154.239z"/>
<linearGradient id="SVGID_7_" gradientUnits="userSpaceOnUse" x1="210.9397" y1="388.2034" x2="84.4697" y2="563.9334" gradientTransform="matrix(1.0039 0 0 -1.0039 0.1922 516.5599)">
	<stop  offset="0" style="stop-color:#BE3F45;stop-opacity:0"/>
	<stop  offset="1" style="stop-color:#BE3F45"/>
</linearGradient>
<polygon style="fill:url(#SVGID_7_);" points="276.35,174.478 190.65,88.778 159.981,96.438 238.021,174.478 "/>
<g>
</g>
<g>
</g>
<g>
</g>
<g>
</g>
<g>
</g>
<g>
</g>
<g>
</g>
<g>
</g>
<g>
</g>
<g>
</g>
<g>
</g>
<g>
</g>
<g>
</g>
<g>
</g>
<g>
</g>
</svg>
